<svg width="57" height="54" viewBox="0 0 57 54" fill="none" xmlns="http://www.w3.org/2000/svg">
<rect x="1" y="1" width="55" height="52" rx="5" stroke="white" stroke-width="2"/>
<path d="M28.278 36.93V41.222C23.5913 40.112 19.6693 37.929 16.512 34.673C13.108 31.121 11.406 27.051 11.406 22.463C11.406 19.6757 12.2447 17.4063 13.922 15.655C15.624 13.9037 17.8563 13.028 20.619 13.028C22.839 13.028 24.393 13.139 25.281 13.361V18.097C23.7517 17.0857 22.1607 16.58 20.508 16.58C18.806 16.58 17.4863 17.172 16.549 18.356C15.6363 19.5153 15.18 20.9583 15.18 22.685C15.18 25.201 15.9323 27.606 17.437 29.9C18.843 31.9967 20.693 33.7357 22.987 35.117C24.985 36.3257 26.7487 36.93 28.278 36.93ZM34.1023 21.908V18.578H42.3903C41.9463 17.9613 41.12 17.4557 39.9113 17.061C38.8753 16.7403 37.8887 16.58 36.9513 16.58C34.8793 16.58 33.2883 16.95 32.1783 17.69V13.361C32.9183 13.139 34.6943 13.028 37.5063 13.028C40.0963 13.028 42.3903 13.9653 44.3883 15.84C46.3863 17.69 47.3853 19.8977 47.3853 22.463C47.3853 27.051 45.671 31.121 42.2423 34.673C39.1097 37.929 35.2 40.112 30.5133 41.222V36.93C32.092 36.93 33.8557 36.338 35.8043 35.154C38.123 33.748 39.9607 32.0337 41.3173 30.011C42.8467 27.7663 43.6113 25.386 43.6113 22.87C43.6113 22.574 43.5867 22.2533 43.5373 21.908H34.1023Z" fill="white"/>
</svg>
