<svg width="25" height="25" viewBox="0 0 25 25" fill="none" xmlns="http://www.w3.org/2000/svg">
<path d="M21.49 13.7083C21.2242 13.7083 20.9463 13.6238 20.6804 13.5633C20.1421 13.4447 19.6131 13.2872 19.0975 13.0921C18.5369 12.8882 17.9208 12.8987 17.3675 13.1218C16.8143 13.3449 16.3631 13.7647 16.1008 14.3004L15.835 14.8442C14.6581 14.1895 13.5766 13.3763 12.6208 12.4275C11.672 11.4717 10.8589 10.3902 10.2042 9.21333L10.7117 8.875C11.2474 8.61269 11.6672 8.16152 11.8903 7.60829C12.1133 7.05507 12.1239 6.43889 11.92 5.87833C11.7281 5.36168 11.5707 4.83288 11.4488 4.29542C11.3883 4.02958 11.34 3.75167 11.3038 3.47375C11.157 2.62262 10.7112 1.85186 10.0466 1.30025C9.38204 0.74864 8.54234 0.452444 7.67875 0.465H4.05375C3.533 0.460111 3.0173 0.567483 2.54177 0.779808C2.06625 0.992133 1.64205 1.30442 1.29806 1.69542C0.954074 2.08642 0.698371 2.54695 0.54836 3.04565C0.39835 3.54436 0.357554 4.06953 0.42875 4.58542C1.07248 9.64759 3.38437 14.351 6.99925 17.9528C10.6141 21.5545 15.3259 23.8493 20.3904 24.4746H20.8496C21.7406 24.4759 22.6009 24.149 23.2663 23.5563C23.6485 23.2143 23.9539 22.7952 24.1622 22.3266C24.3705 21.8579 24.477 21.3504 24.4746 20.8375V17.2125C24.4598 16.3732 24.1541 15.565 23.6098 14.9259C23.0655 14.2869 22.3163 13.8565 21.49 13.7083ZM22.0942 20.9583C22.094 21.1299 22.0572 21.2995 21.9864 21.4557C21.9155 21.612 21.8122 21.7514 21.6833 21.8646C21.5487 21.9818 21.3909 22.0693 21.2201 22.1214C21.0494 22.1734 20.8696 22.1888 20.6925 22.1667C16.1672 21.5864 11.9638 19.5162 8.74537 16.2824C5.52694 13.0487 3.47666 8.83553 2.91792 4.3075C2.89869 4.1305 2.91554 3.95144 2.96746 3.78114C3.01938 3.61084 3.10529 3.45283 3.22 3.31667C3.33323 3.18778 3.47262 3.08448 3.62887 3.01364C3.78513 2.9428 3.95468 2.90605 4.12625 2.90583H7.75125C8.03224 2.89958 8.30663 2.99148 8.52717 3.16571C8.74772 3.33994 8.90063 3.58561 8.95958 3.86042C9.00792 4.19069 9.06833 4.51694 9.14083 4.83917C9.28042 5.47613 9.46619 6.10209 9.69667 6.71208L8.005 7.4975C7.86036 7.56386 7.73025 7.65814 7.62215 7.77493C7.51405 7.89171 7.43008 8.0287 7.37506 8.17803C7.32005 8.32735 7.29507 8.48608 7.30157 8.64508C7.30806 8.80409 7.3459 8.96024 7.41292 9.10458C9.15195 12.8296 12.1463 15.8239 15.8713 17.5629C16.1654 17.6838 16.4954 17.6838 16.7896 17.5629C16.9403 17.509 17.0788 17.4257 17.197 17.3179C17.3152 17.21 17.4109 17.0797 17.4783 16.9346L18.2275 15.2429C18.8522 15.4663 19.4897 15.6519 20.1367 15.7988C20.4589 15.8713 20.7851 15.9317 21.1154 15.98C21.3902 16.039 21.6359 16.1919 21.8101 16.4124C21.9844 16.633 22.0763 16.9073 22.07 17.1883L22.0942 20.9583Z" fill="white"/>
</svg>
