<svg width="34" height="1374" viewBox="0 0 34 1374" fill="none" xmlns="http://www.w3.org/2000/svg">
<path d="M15.528 27V11.64L17.208 13.32H12.168V10.2H19.416V27H15.528Z" fill="white"/>
<path d="M32.5 18C32.5 25.9238 25.6474 32.5 17 32.5C8.35262 32.5 1.5 25.9238 1.5 18C1.5 10.0762 8.35262 3.5 17 3.5C25.6474 3.5 32.5 10.0762 32.5 18Z" stroke="white" stroke-width="3"/>
<path d="M17 33V83.5" stroke="white" stroke-width="4" stroke-dasharray="6 6"/>
<path d="M10.792 107V104.48L17.272 98.36C17.784 97.896 18.16 97.48 18.4 97.112C18.64 96.744 18.8 96.408 18.88 96.104C18.976 95.8 19.024 95.52 19.024 95.264C19.024 94.592 18.792 94.08 18.328 93.728C17.88 93.36 17.216 93.176 16.336 93.176C15.632 93.176 14.976 93.312 14.368 93.584C13.776 93.856 13.272 94.28 12.856 94.856L10.024 93.032C10.664 92.072 11.56 91.312 12.712 90.752C13.864 90.192 15.192 89.912 16.696 89.912C17.944 89.912 19.032 90.12 19.96 90.536C20.904 90.936 21.632 91.504 22.144 92.24C22.672 92.976 22.936 93.856 22.936 94.88C22.936 95.424 22.864 95.968 22.72 96.512C22.592 97.04 22.32 97.6 21.904 98.192C21.504 98.784 20.912 99.448 20.128 100.184L14.752 105.248L14.008 103.832H23.488V107H10.792Z" fill="white"/>
<path d="M32.5 98C32.5 105.924 25.6474 112.5 17 112.5C8.35262 112.5 1.5 105.924 1.5 98C1.5 90.0762 8.35262 83.5 17 83.5C25.6474 83.5 32.5 90.0762 32.5 98Z" stroke="white" stroke-width="3"/>
<path d="M17 113V292" stroke="white" stroke-width="4" stroke-dasharray="6 6"/>
<path d="M16.384 316.288C15.216 316.288 14.056 316.136 12.904 315.832C11.752 315.512 10.776 315.064 9.976 314.488L11.488 311.512C12.128 311.976 12.872 312.344 13.72 312.616C14.568 312.888 15.424 313.024 16.288 313.024C17.264 313.024 18.032 312.832 18.592 312.448C19.152 312.064 19.432 311.536 19.432 310.864C19.432 310.224 19.184 309.72 18.688 309.352C18.192 308.984 17.392 308.8 16.288 308.8H14.512V306.232L19.192 300.928L19.624 302.32H10.816V299.2H22.576V301.72L17.92 307.024L15.952 305.896H17.08C19.144 305.896 20.704 306.36 21.76 307.288C22.816 308.216 23.344 309.408 23.344 310.864C23.344 311.808 23.096 312.696 22.6 313.528C22.104 314.344 21.344 315.008 20.32 315.52C19.296 316.032 17.984 316.288 16.384 316.288Z" fill="white"/>
<path d="M32.5 307C32.5 314.924 25.6474 321.5 17 321.5C8.35262 321.5 1.5 314.924 1.5 307C1.5 299.076 8.35262 292.5 17 292.5C25.6474 292.5 32.5 299.076 32.5 307Z" stroke="white" stroke-width="3"/>
<path d="M17 322V643" stroke="white" stroke-width="4" stroke-dasharray="6 6"/>
<path d="M8.744 663.472V660.856L16.664 650.2H20.744L12.992 660.856L11.096 660.304H24.32V663.472H8.744ZM17.792 667V663.472L17.912 660.304V657.16H21.584V667H17.792Z" fill="white"/>
<path d="M32.5 658C32.5 665.924 25.6474 672.5 17 672.5C8.35262 672.5 1.5 665.924 1.5 658C1.5 650.076 8.35262 643.5 17 643.5C25.6474 643.5 32.5 650.076 32.5 658Z" stroke="white" stroke-width="3"/>
<path d="M17 673L17.0318 948" stroke="white" stroke-width="4" stroke-dasharray="6 6"/>
<path d="M16.648 972.288C15.48 972.288 14.32 972.136 13.168 971.832C12.032 971.512 11.056 971.064 10.24 970.488L11.776 967.512C12.416 967.976 13.152 968.344 13.984 968.616C14.832 968.888 15.688 969.024 16.552 969.024C17.528 969.024 18.296 968.832 18.856 968.448C19.416 968.064 19.696 967.528 19.696 966.84C19.696 966.408 19.584 966.024 19.36 965.688C19.136 965.352 18.736 965.096 18.16 964.92C17.6 964.744 16.808 964.656 15.784 964.656H11.488L12.352 955.2H22.6V958.32H13.744L15.76 956.544L15.16 963.288L13.144 961.512H16.696C18.36 961.512 19.696 961.744 20.704 962.208C21.728 962.656 22.472 963.272 22.936 964.056C23.4 964.84 23.632 965.728 23.632 966.72C23.632 967.712 23.384 968.632 22.888 969.48C22.392 970.312 21.624 970.992 20.584 971.52C19.56 972.032 18.248 972.288 16.648 972.288Z" fill="white"/>
<path d="M32.5 963C32.5 970.924 25.6474 977.5 17 977.5C8.35262 977.5 1.5 970.924 1.5 963C1.5 955.076 8.35262 948.5 17 948.5C25.6474 948.5 32.5 955.076 32.5 963Z" stroke="white" stroke-width="3"/>
<path d="M17 978V1343" stroke="white" stroke-width="4" stroke-dasharray="6 6"/>
<path d="M17.448 1367.29C15.912 1367.29 14.576 1366.97 13.44 1366.33C12.32 1365.69 11.456 1364.75 10.848 1363.52C10.24 1362.29 9.936 1360.77 9.936 1358.96C9.936 1357.02 10.296 1355.38 11.016 1354.04C11.752 1352.7 12.76 1351.67 14.04 1350.97C15.336 1350.26 16.824 1349.91 18.504 1349.91C19.4 1349.91 20.256 1350.01 21.072 1350.2C21.888 1350.39 22.592 1350.68 23.184 1351.06L21.744 1353.92C21.28 1353.6 20.784 1353.38 20.256 1353.27C19.728 1353.14 19.176 1353.08 18.6 1353.08C17.144 1353.08 15.992 1353.52 15.144 1354.4C14.296 1355.28 13.872 1356.58 13.872 1358.31C13.872 1358.6 13.872 1358.92 13.872 1359.27C13.888 1359.62 13.936 1359.98 14.016 1360.33L12.936 1359.32C13.24 1358.7 13.632 1358.18 14.112 1357.76C14.592 1357.33 15.16 1357.01 15.816 1356.8C16.488 1356.58 17.224 1356.46 18.024 1356.46C19.112 1356.46 20.088 1356.68 20.952 1357.11C21.816 1357.54 22.504 1358.15 23.016 1358.94C23.544 1359.72 23.808 1360.64 23.808 1361.7C23.808 1362.83 23.52 1363.82 22.944 1364.67C22.384 1365.5 21.624 1366.15 20.664 1366.62C19.72 1367.06 18.648 1367.29 17.448 1367.29ZM17.232 1364.38C17.776 1364.38 18.256 1364.29 18.672 1364.1C19.104 1363.89 19.44 1363.59 19.68 1363.21C19.92 1362.82 20.04 1362.38 20.04 1361.89C20.04 1361.12 19.776 1360.51 19.248 1360.06C18.736 1359.6 18.048 1359.37 17.184 1359.37C16.608 1359.37 16.104 1359.48 15.672 1359.7C15.24 1359.91 14.896 1360.21 14.64 1360.59C14.4 1360.96 14.28 1361.39 14.28 1361.89C14.28 1362.37 14.4 1362.8 14.64 1363.18C14.88 1363.55 15.216 1363.85 15.648 1364.07C16.08 1364.28 16.608 1364.38 17.232 1364.38Z" fill="white"/>
<path d="M32.5 1358C32.5 1365.92 25.6474 1372.5 17 1372.5C8.35262 1372.5 1.5 1365.92 1.5 1358C1.5 1350.08 8.35262 1343.5 17 1343.5C25.6474 1343.5 32.5 1350.08 32.5 1358Z" stroke="white" stroke-width="3"/>
</svg>
