<svg width="43" height="43" viewBox="0 0 43 43" fill="none" xmlns="http://www.w3.org/2000/svg">
<path d="M29.4838 23.025C31.6021 21.3676 33.1482 19.0948 33.9071 16.5228C34.666 13.9507 34.6 11.2074 33.7182 8.67447C32.8364 6.14152 31.1826 3.94489 28.9871 2.39018C26.7915 0.83547 24.1632 0 21.468 0C18.7727 0 16.1444 0.83547 13.9489 2.39018C11.7533 3.94489 10.0995 6.14152 9.21772 8.67447C8.3359 11.2074 8.26986 13.9507 9.02877 16.5228C9.78768 19.0948 11.3338 21.3676 13.4521 23.025C9.8224 24.4712 6.65539 26.8699 4.28866 29.9654C1.92193 33.0608 0.444212 36.7369 0.0130325 40.6019C-0.0181785 40.8841 0.00680244 41.1696 0.0865484 41.4422C0.166294 41.7148 0.299244 41.9691 0.477806 42.1905C0.838429 42.6378 1.36295 42.9243 1.93598 42.987C2.50901 43.0497 3.08361 42.8835 3.53338 42.5248C3.98314 42.1662 4.27123 41.6445 4.33427 41.0746C4.8087 36.8742 6.82262 32.9949 9.99123 30.1778C13.1598 27.3608 17.261 25.8035 21.5112 25.8035C25.7613 25.8035 29.8625 27.3608 33.0311 30.1778C36.1997 32.9949 38.2136 36.8742 38.6881 41.0746C38.7468 41.6026 39.0001 42.0903 39.3991 42.4434C39.7981 42.7966 40.3145 42.9903 40.8487 42.987H41.0864C41.6527 42.9222 42.1704 42.6374 42.5265 42.1947C42.8827 41.7519 43.0484 41.1872 42.9877 40.6234C42.5545 36.7475 41.0688 33.0619 38.6899 29.9617C36.311 26.8615 33.1286 24.4636 29.4838 23.025ZM21.468 21.4994C19.7586 21.4994 18.0877 20.9953 16.6665 20.0509C15.2452 19.1065 14.1375 17.7641 13.4834 16.1936C12.8292 14.623 12.6581 12.8948 12.9916 11.2276C13.325 9.56029 14.1481 8.0288 15.3568 6.82676C16.5655 5.62472 18.1054 4.80613 19.7819 4.47448C21.4584 4.14284 23.1961 4.31305 24.7753 4.96359C26.3545 5.61413 27.7043 6.71578 28.6539 8.12923C29.6035 9.54267 30.1104 11.2044 30.1104 12.9044C30.1104 15.1839 29.1999 17.3701 27.5791 18.982C25.9583 20.5939 23.7601 21.4994 21.468 21.4994Z" fill="black"/>
</svg>
